<mxfile host="app.diagrams.net" modified="2024-03-20T16:58:47.051Z" agent="Mozilla/5.0 (X11; Linux x86_64; rv:107.0) Gecko/20100101 Firefox/107.0" etag="50MT2jO5tR5FUx53-eOa" version="23.1.8" type="device">
  <diagram id="C5RBs43oDa-KdzZeNtuy" name="Page-1">
    <mxGraphModel dx="1434" dy="688" grid="1" gridSize="10" guides="1" tooltips="1" connect="1" arrows="1" fold="1" page="1" pageScale="1" pageWidth="827" pageHeight="1169" math="0" shadow="0">
      <root>
        <mxCell id="WIyWlLk6GJQsqaUBKTNV-0" />
        <mxCell id="WIyWlLk6GJQsqaUBKTNV-1" parent="WIyWlLk6GJQsqaUBKTNV-0" />
        <mxCell id="mIKZlhb0tXhXQCAx8YiM-12" value="&lt;b&gt;Replication experiment&lt;/b&gt;" style="rounded=0;whiteSpace=wrap;html=1;align=left;verticalAlign=bottom;" vertex="1" parent="WIyWlLk6GJQsqaUBKTNV-1">
          <mxGeometry x="80" y="310" width="360" height="110" as="geometry" />
        </mxCell>
        <mxCell id="mIKZlhb0tXhXQCAx8YiM-6" value="&lt;b&gt;Initial experiment&lt;/b&gt;" style="rounded=0;whiteSpace=wrap;html=1;align=left;verticalAlign=top;" vertex="1" parent="WIyWlLk6GJQsqaUBKTNV-1">
          <mxGeometry x="90" y="20" width="360" height="110" as="geometry" />
        </mxCell>
        <mxCell id="mIKZlhb0tXhXQCAx8YiM-4" style="edgeStyle=orthogonalEdgeStyle;rounded=0;orthogonalLoop=1;jettySize=auto;html=1;exitX=1;exitY=0.5;exitDx=0;exitDy=0;" edge="1" parent="WIyWlLk6GJQsqaUBKTNV-1" source="mIKZlhb0tXhXQCAx8YiM-0" target="mIKZlhb0tXhXQCAx8YiM-1">
          <mxGeometry relative="1" as="geometry" />
        </mxCell>
        <mxCell id="mIKZlhb0tXhXQCAx8YiM-0" value="&lt;div&gt;Case 1: CCU&lt;/div&gt;" style="rounded=1;whiteSpace=wrap;html=1;" vertex="1" parent="WIyWlLk6GJQsqaUBKTNV-1">
          <mxGeometry x="120" y="60" width="110" height="50" as="geometry" />
        </mxCell>
        <mxCell id="mIKZlhb0tXhXQCAx8YiM-17" style="edgeStyle=orthogonalEdgeStyle;rounded=0;orthogonalLoop=1;jettySize=auto;html=1;exitX=1;exitY=0.5;exitDx=0;exitDy=0;entryX=1;entryY=0.5;entryDx=0;entryDy=0;" edge="1" parent="WIyWlLk6GJQsqaUBKTNV-1" source="mIKZlhb0tXhXQCAx8YiM-1" target="mIKZlhb0tXhXQCAx8YiM-14">
          <mxGeometry relative="1" as="geometry">
            <mxPoint x="480" y="84.60869565217399" as="targetPoint" />
            <Array as="points">
              <mxPoint x="480" y="85" />
              <mxPoint x="480" y="365" />
            </Array>
          </mxGeometry>
        </mxCell>
        <mxCell id="mIKZlhb0tXhXQCAx8YiM-1" value="Case 2: Stroke+Rehab" style="rounded=1;whiteSpace=wrap;html=1;fontSize=12;glass=0;strokeWidth=1;shadow=0;" vertex="1" parent="WIyWlLk6GJQsqaUBKTNV-1">
          <mxGeometry x="310" y="60" width="110" height="50" as="geometry" />
        </mxCell>
        <mxCell id="mIKZlhb0tXhXQCAx8YiM-9" style="edgeStyle=orthogonalEdgeStyle;rounded=0;orthogonalLoop=1;jettySize=auto;html=1;exitX=1;exitY=0.5;exitDx=0;exitDy=0;exitPerimeter=0;entryX=0.5;entryY=1;entryDx=0;entryDy=0;startArrow=classic;startFill=1;" edge="1" parent="WIyWlLk6GJQsqaUBKTNV-1" source="mIKZlhb0tXhXQCAx8YiM-2" target="mIKZlhb0tXhXQCAx8YiM-1">
          <mxGeometry relative="1" as="geometry" />
        </mxCell>
        <mxCell id="mIKZlhb0tXhXQCAx8YiM-10" value="&lt;div&gt;Reuse,&lt;/div&gt;&lt;div&gt;adapt &lt;br&gt;&lt;/div&gt;&lt;div&gt;and add&lt;/div&gt;" style="edgeLabel;html=1;align=center;verticalAlign=middle;resizable=0;points=[];" vertex="1" connectable="0" parent="mIKZlhb0tXhXQCAx8YiM-9">
          <mxGeometry x="0.1048" y="1" relative="1" as="geometry">
            <mxPoint as="offset" />
          </mxGeometry>
        </mxCell>
        <mxCell id="mIKZlhb0tXhXQCAx8YiM-2" value="Prompt database" style="shape=cylinder3;whiteSpace=wrap;html=1;boundedLbl=1;backgroundOutline=1;size=15;" vertex="1" parent="WIyWlLk6GJQsqaUBKTNV-1">
          <mxGeometry x="200" y="160" width="140" height="120" as="geometry" />
        </mxCell>
        <mxCell id="mIKZlhb0tXhXQCAx8YiM-7" style="edgeStyle=orthogonalEdgeStyle;rounded=0;orthogonalLoop=1;jettySize=auto;html=1;exitX=0.5;exitY=1;exitDx=0;exitDy=0;entryX=0;entryY=0.5;entryDx=0;entryDy=0;entryPerimeter=0;" edge="1" parent="WIyWlLk6GJQsqaUBKTNV-1" source="mIKZlhb0tXhXQCAx8YiM-0" target="mIKZlhb0tXhXQCAx8YiM-2">
          <mxGeometry relative="1" as="geometry" />
        </mxCell>
        <mxCell id="mIKZlhb0tXhXQCAx8YiM-11" value="add" style="edgeLabel;html=1;align=center;verticalAlign=middle;resizable=0;points=[];" vertex="1" connectable="0" parent="mIKZlhb0tXhXQCAx8YiM-7">
          <mxGeometry x="-0.2305" y="-2" relative="1" as="geometry">
            <mxPoint as="offset" />
          </mxGeometry>
        </mxCell>
        <mxCell id="mIKZlhb0tXhXQCAx8YiM-13" value="add only" style="edgeLabel;html=1;align=center;verticalAlign=middle;resizable=0;points=[];" vertex="1" connectable="0" parent="mIKZlhb0tXhXQCAx8YiM-7">
          <mxGeometry x="-0.2296" y="-1" relative="1" as="geometry">
            <mxPoint as="offset" />
          </mxGeometry>
        </mxCell>
        <mxCell id="mIKZlhb0tXhXQCAx8YiM-19" style="edgeStyle=orthogonalEdgeStyle;rounded=0;orthogonalLoop=1;jettySize=auto;html=1;exitX=0;exitY=0.5;exitDx=0;exitDy=0;" edge="1" parent="WIyWlLk6GJQsqaUBKTNV-1" source="mIKZlhb0tXhXQCAx8YiM-14" target="mIKZlhb0tXhXQCAx8YiM-15">
          <mxGeometry relative="1" as="geometry" />
        </mxCell>
        <mxCell id="mIKZlhb0tXhXQCAx8YiM-14" value="&lt;div&gt;Case 1: CCU&lt;/div&gt;" style="rounded=1;whiteSpace=wrap;html=1;" vertex="1" parent="WIyWlLk6GJQsqaUBKTNV-1">
          <mxGeometry x="310" y="340" width="110" height="50" as="geometry" />
        </mxCell>
        <mxCell id="mIKZlhb0tXhXQCAx8YiM-15" value="Case 2: Stroke+Rehab" style="rounded=1;whiteSpace=wrap;html=1;fontSize=12;glass=0;strokeWidth=1;shadow=0;" vertex="1" parent="WIyWlLk6GJQsqaUBKTNV-1">
          <mxGeometry x="120" y="340" width="110" height="50" as="geometry" />
        </mxCell>
        <mxCell id="mIKZlhb0tXhXQCAx8YiM-20" style="edgeStyle=orthogonalEdgeStyle;rounded=0;orthogonalLoop=1;jettySize=auto;html=1;exitX=0.5;exitY=0;exitDx=0;exitDy=0;entryX=1;entryY=0;entryDx=0;entryDy=82.50000000000001;entryPerimeter=0;startArrow=classic;startFill=1;" edge="1" parent="WIyWlLk6GJQsqaUBKTNV-1" source="mIKZlhb0tXhXQCAx8YiM-14" target="mIKZlhb0tXhXQCAx8YiM-2">
          <mxGeometry relative="1" as="geometry" />
        </mxCell>
        <mxCell id="mIKZlhb0tXhXQCAx8YiM-21" value="&lt;div&gt;Reuse, &lt;br&gt;&lt;/div&gt;&lt;div&gt;adapt &lt;br&gt;&lt;/div&gt;" style="edgeLabel;html=1;align=center;verticalAlign=middle;resizable=0;points=[];" vertex="1" connectable="0" parent="mIKZlhb0tXhXQCAx8YiM-20">
          <mxGeometry x="0.0297" y="2" relative="1" as="geometry">
            <mxPoint as="offset" />
          </mxGeometry>
        </mxCell>
        <mxCell id="mIKZlhb0tXhXQCAx8YiM-22" style="edgeStyle=orthogonalEdgeStyle;rounded=0;orthogonalLoop=1;jettySize=auto;html=1;exitX=0.5;exitY=0;exitDx=0;exitDy=0;entryX=0;entryY=0;entryDx=0;entryDy=82.5;entryPerimeter=0;startArrow=classic;startFill=1;" edge="1" parent="WIyWlLk6GJQsqaUBKTNV-1" source="mIKZlhb0tXhXQCAx8YiM-15" target="mIKZlhb0tXhXQCAx8YiM-2">
          <mxGeometry relative="1" as="geometry" />
        </mxCell>
        <mxCell id="mIKZlhb0tXhXQCAx8YiM-23" value="&lt;div&gt;Reuse,&lt;/div&gt;&lt;div&gt;adapt&lt;br&gt;&lt;/div&gt;" style="edgeLabel;html=1;align=center;verticalAlign=middle;resizable=0;points=[];" vertex="1" connectable="0" parent="mIKZlhb0tXhXQCAx8YiM-22">
          <mxGeometry y="2" relative="1" as="geometry">
            <mxPoint as="offset" />
          </mxGeometry>
        </mxCell>
        <mxCell id="mIKZlhb0tXhXQCAx8YiM-24" value="&lt;div&gt;&lt;b&gt;Replication &lt;br&gt;&lt;/b&gt;&lt;/div&gt;&lt;div&gt;&lt;b&gt;experiment&lt;/b&gt;&lt;/div&gt;" style="rounded=0;whiteSpace=wrap;html=1;align=left;verticalAlign=top;" vertex="1" parent="WIyWlLk6GJQsqaUBKTNV-1">
          <mxGeometry x="520" y="760" width="220" height="200" as="geometry" />
        </mxCell>
        <mxCell id="mIKZlhb0tXhXQCAx8YiM-25" value="&lt;b&gt;Initial experiment&lt;/b&gt;" style="rounded=0;whiteSpace=wrap;html=1;align=left;verticalAlign=top;" vertex="1" parent="WIyWlLk6GJQsqaUBKTNV-1">
          <mxGeometry x="520" y="520" width="220" height="230" as="geometry" />
        </mxCell>
        <mxCell id="mIKZlhb0tXhXQCAx8YiM-26" style="edgeStyle=orthogonalEdgeStyle;rounded=0;orthogonalLoop=1;jettySize=auto;html=1;exitX=0.5;exitY=1;exitDx=0;exitDy=0;" edge="1" parent="WIyWlLk6GJQsqaUBKTNV-1" source="mIKZlhb0tXhXQCAx8YiM-27" target="mIKZlhb0tXhXQCAx8YiM-29">
          <mxGeometry relative="1" as="geometry">
            <mxPoint x="670" y="575" as="sourcePoint" />
          </mxGeometry>
        </mxCell>
        <mxCell id="mIKZlhb0tXhXQCAx8YiM-27" value="&lt;div&gt;Case 1: CCU&lt;/div&gt;" style="rounded=1;whiteSpace=wrap;html=1;" vertex="1" parent="WIyWlLk6GJQsqaUBKTNV-1">
          <mxGeometry x="575" y="550" width="110" height="50" as="geometry" />
        </mxCell>
        <mxCell id="mIKZlhb0tXhXQCAx8YiM-43" style="edgeStyle=orthogonalEdgeStyle;rounded=0;orthogonalLoop=1;jettySize=auto;html=1;exitX=0.5;exitY=1;exitDx=0;exitDy=0;entryX=0.5;entryY=0;entryDx=0;entryDy=0;" edge="1" parent="WIyWlLk6GJQsqaUBKTNV-1" source="mIKZlhb0tXhXQCAx8YiM-29" target="mIKZlhb0tXhXQCAx8YiM-37">
          <mxGeometry relative="1" as="geometry" />
        </mxCell>
        <mxCell id="mIKZlhb0tXhXQCAx8YiM-29" value="Case 2: Stroke+Rehab" style="rounded=1;whiteSpace=wrap;html=1;fontSize=12;glass=0;strokeWidth=1;shadow=0;" vertex="1" parent="WIyWlLk6GJQsqaUBKTNV-1">
          <mxGeometry x="575" y="660" width="110" height="50" as="geometry" />
        </mxCell>
        <mxCell id="mIKZlhb0tXhXQCAx8YiM-32" value="Prompt database" style="shape=cylinder3;whiteSpace=wrap;html=1;boundedLbl=1;backgroundOutline=1;size=15;" vertex="1" parent="WIyWlLk6GJQsqaUBKTNV-1">
          <mxGeometry x="280" y="600" width="140" height="170" as="geometry" />
        </mxCell>
        <mxCell id="mIKZlhb0tXhXQCAx8YiM-33" style="edgeStyle=orthogonalEdgeStyle;rounded=0;orthogonalLoop=1;jettySize=auto;html=1;exitX=0;exitY=0.5;exitDx=0;exitDy=0;entryX=0.5;entryY=0;entryDx=0;entryDy=0;entryPerimeter=0;" edge="1" parent="WIyWlLk6GJQsqaUBKTNV-1" source="mIKZlhb0tXhXQCAx8YiM-27" target="mIKZlhb0tXhXQCAx8YiM-32">
          <mxGeometry relative="1" as="geometry">
            <mxPoint x="310" y="610" as="targetPoint" />
          </mxGeometry>
        </mxCell>
        <mxCell id="mIKZlhb0tXhXQCAx8YiM-34" value="add" style="edgeLabel;html=1;align=center;verticalAlign=middle;resizable=0;points=[];" vertex="1" connectable="0" parent="mIKZlhb0tXhXQCAx8YiM-33">
          <mxGeometry x="-0.2305" y="-2" relative="1" as="geometry">
            <mxPoint as="offset" />
          </mxGeometry>
        </mxCell>
        <mxCell id="mIKZlhb0tXhXQCAx8YiM-35" value="add" style="edgeLabel;html=1;align=center;verticalAlign=middle;resizable=0;points=[];" vertex="1" connectable="0" parent="mIKZlhb0tXhXQCAx8YiM-33">
          <mxGeometry x="-0.2296" y="-1" relative="1" as="geometry">
            <mxPoint as="offset" />
          </mxGeometry>
        </mxCell>
        <mxCell id="mIKZlhb0tXhXQCAx8YiM-36" style="edgeStyle=orthogonalEdgeStyle;rounded=0;orthogonalLoop=1;jettySize=auto;html=1;exitX=0.5;exitY=1;exitDx=0;exitDy=0;" edge="1" parent="WIyWlLk6GJQsqaUBKTNV-1" source="mIKZlhb0tXhXQCAx8YiM-37" target="mIKZlhb0tXhXQCAx8YiM-38">
          <mxGeometry relative="1" as="geometry" />
        </mxCell>
        <mxCell id="mIKZlhb0tXhXQCAx8YiM-37" value="&lt;div&gt;Case 1: CCU&lt;/div&gt;" style="rounded=1;whiteSpace=wrap;html=1;" vertex="1" parent="WIyWlLk6GJQsqaUBKTNV-1">
          <mxGeometry x="575" y="800" width="110" height="50" as="geometry" />
        </mxCell>
        <mxCell id="mIKZlhb0tXhXQCAx8YiM-38" value="Case 2: Stroke+Rehab" style="rounded=1;whiteSpace=wrap;html=1;fontSize=12;glass=0;strokeWidth=1;shadow=0;" vertex="1" parent="WIyWlLk6GJQsqaUBKTNV-1">
          <mxGeometry x="575" y="890" width="110" height="50" as="geometry" />
        </mxCell>
        <mxCell id="mIKZlhb0tXhXQCAx8YiM-41" style="edgeStyle=orthogonalEdgeStyle;rounded=0;orthogonalLoop=1;jettySize=auto;html=1;exitX=0;exitY=0.5;exitDx=0;exitDy=0;startArrow=classic;startFill=1;" edge="1" parent="WIyWlLk6GJQsqaUBKTNV-1" source="mIKZlhb0tXhXQCAx8YiM-38" target="mIKZlhb0tXhXQCAx8YiM-32">
          <mxGeometry relative="1" as="geometry" />
        </mxCell>
        <mxCell id="mIKZlhb0tXhXQCAx8YiM-42" value="Reuse + adapt" style="edgeLabel;html=1;align=center;verticalAlign=middle;resizable=0;points=[];" vertex="1" connectable="0" parent="mIKZlhb0tXhXQCAx8YiM-41">
          <mxGeometry y="2" relative="1" as="geometry">
            <mxPoint x="47" y="-2" as="offset" />
          </mxGeometry>
        </mxCell>
        <mxCell id="mIKZlhb0tXhXQCAx8YiM-44" style="edgeStyle=orthogonalEdgeStyle;rounded=0;orthogonalLoop=1;jettySize=auto;html=1;exitX=0;exitY=0.5;exitDx=0;exitDy=0;entryX=0.855;entryY=1;entryDx=0;entryDy=-4.35;entryPerimeter=0;startArrow=classic;startFill=1;" edge="1" parent="WIyWlLk6GJQsqaUBKTNV-1" source="mIKZlhb0tXhXQCAx8YiM-37" target="mIKZlhb0tXhXQCAx8YiM-32">
          <mxGeometry relative="1" as="geometry" />
        </mxCell>
        <mxCell id="mIKZlhb0tXhXQCAx8YiM-45" value="Reuse + adapt" style="edgeLabel;html=1;align=center;verticalAlign=middle;resizable=0;points=[];" vertex="1" connectable="0" parent="mIKZlhb0tXhXQCAx8YiM-44">
          <mxGeometry x="0.0774" y="-2" relative="1" as="geometry">
            <mxPoint as="offset" />
          </mxGeometry>
        </mxCell>
        <mxCell id="mIKZlhb0tXhXQCAx8YiM-46" style="edgeStyle=orthogonalEdgeStyle;rounded=0;orthogonalLoop=1;jettySize=auto;html=1;exitX=0;exitY=0.5;exitDx=0;exitDy=0;entryX=1;entryY=0.5;entryDx=0;entryDy=0;entryPerimeter=0;startArrow=classic;startFill=1;" edge="1" parent="WIyWlLk6GJQsqaUBKTNV-1" source="mIKZlhb0tXhXQCAx8YiM-29" target="mIKZlhb0tXhXQCAx8YiM-32">
          <mxGeometry relative="1" as="geometry" />
        </mxCell>
        <mxCell id="mIKZlhb0tXhXQCAx8YiM-48" value="&lt;div&gt;reuse,&lt;/div&gt;&lt;div&gt;adapt,&lt;/div&gt;&lt;div&gt;add&lt;br&gt;&lt;/div&gt;" style="edgeLabel;html=1;align=center;verticalAlign=middle;resizable=0;points=[];" vertex="1" connectable="0" parent="mIKZlhb0tXhXQCAx8YiM-46">
          <mxGeometry x="0.2716" y="-1" relative="1" as="geometry">
            <mxPoint as="offset" />
          </mxGeometry>
        </mxCell>
        <mxCell id="mIKZlhb0tXhXQCAx8YiM-50" value="1" style="text;html=1;align=center;verticalAlign=middle;whiteSpace=wrap;rounded=0;" vertex="1" parent="WIyWlLk6GJQsqaUBKTNV-1">
          <mxGeometry x="120" y="60" width="20" height="20" as="geometry" />
        </mxCell>
        <mxCell id="mIKZlhb0tXhXQCAx8YiM-51" value="2" style="text;html=1;align=center;verticalAlign=middle;whiteSpace=wrap;rounded=0;" vertex="1" parent="WIyWlLk6GJQsqaUBKTNV-1">
          <mxGeometry x="310" y="60" width="20" height="20" as="geometry" />
        </mxCell>
        <mxCell id="mIKZlhb0tXhXQCAx8YiM-52" value="3" style="text;html=1;align=center;verticalAlign=middle;whiteSpace=wrap;rounded=0;" vertex="1" parent="WIyWlLk6GJQsqaUBKTNV-1">
          <mxGeometry x="310" y="340" width="20" height="20" as="geometry" />
        </mxCell>
        <mxCell id="mIKZlhb0tXhXQCAx8YiM-53" value="4" style="text;html=1;align=center;verticalAlign=middle;whiteSpace=wrap;rounded=0;" vertex="1" parent="WIyWlLk6GJQsqaUBKTNV-1">
          <mxGeometry x="120" y="340" width="20" height="20" as="geometry" />
        </mxCell>
        <mxCell id="mIKZlhb0tXhXQCAx8YiM-65" value="1" style="text;html=1;align=center;verticalAlign=middle;whiteSpace=wrap;rounded=0;" vertex="1" parent="WIyWlLk6GJQsqaUBKTNV-1">
          <mxGeometry x="575" y="550" width="20" height="20" as="geometry" />
        </mxCell>
        <mxCell id="mIKZlhb0tXhXQCAx8YiM-66" value="2" style="text;html=1;align=center;verticalAlign=middle;whiteSpace=wrap;rounded=0;" vertex="1" parent="WIyWlLk6GJQsqaUBKTNV-1">
          <mxGeometry x="575" y="660" width="20" height="20" as="geometry" />
        </mxCell>
        <mxCell id="mIKZlhb0tXhXQCAx8YiM-67" value="3" style="text;html=1;align=center;verticalAlign=middle;whiteSpace=wrap;rounded=0;" vertex="1" parent="WIyWlLk6GJQsqaUBKTNV-1">
          <mxGeometry x="575" y="800" width="20" height="20" as="geometry" />
        </mxCell>
        <mxCell id="mIKZlhb0tXhXQCAx8YiM-68" value="4" style="text;html=1;align=center;verticalAlign=middle;whiteSpace=wrap;rounded=0;" vertex="1" parent="WIyWlLk6GJQsqaUBKTNV-1">
          <mxGeometry x="575" y="890" width="20" height="20" as="geometry" />
        </mxCell>
      </root>
    </mxGraphModel>
  </diagram>
</mxfile>
